<svg width="123" height="74" viewBox="0 0 123 74" fill="none" xmlns="http://www.w3.org/2000/svg">
<g filter="url(#filter0_d_2322_5506)">
<g filter="url(#filter1_d_2322_5506)">
<path d="M60.7824 31.5829L45.1194 41.2668L46.2443 24.5894L60.7824 31.5829Z" fill="url(#paint0_linear_2322_5506)"/>
<path d="M51.0497 38.9254L45.25 41.3649L60.8818 31.6821L51.0497 38.9254Z" fill="url(#paint1_linear_2322_5506)"/>
<path d="M51.298 25.6083L46.3945 24.6127L60.9809 31.5325L51.298 25.6083Z" fill="url(#paint2_linear_2322_5506)"/>
<path d="M12.8927 35.6467L19.8565 34.8666L19.5995 37.6155L12.6564 38.3933L12.8927 35.6467ZM12.4615 43.7506L9.09322 44.1279L10.3658 29.339L21.297 28.1144L21.04 30.8632L13.477 31.7105L12.4615 43.7506Z" fill="url(#paint3_linear_2322_5506)"/>
<path d="M22.2851 42.6501L23.5457 27.9998L26.8824 27.626L25.6218 42.2763L22.2851 42.6501Z" fill="url(#paint4_linear_2322_5506)"/>
<path d="M29.0019 41.8976L30.2625 27.2473L33.0056 26.94L40.3298 36.6282L39.238 36.6884L40.1292 26.142L43.4045 25.7751L42.1439 40.4254L39.4213 40.7304L32.0766 31.0444L33.1889 30.982L32.2772 41.5307L29.0019 41.8976Z" fill="url(#paint5_linear_2322_5506)"/>
<mask id="mask0_2322_5506" style="mask-type:alpha" maskUnits="userSpaceOnUse" x="67" y="22" width="20" height="18">
<path d="M67.2539 39.0465L68.722 24.2757L72.0949 23.943L70.6268 38.7138L67.2539 39.0465Z" fill="white"/>
<path d="M77.0442 38.0807L78.223 26.0965L73.5878 26.5538L73.8771 23.7672L86.4997 22.522L86.2105 25.3086L81.596 25.7638L80.3964 37.75L77.0442 38.0807Z" fill="white"/>
</mask>
<g mask="url(#mask0_2322_5506)">
<ellipse cx="73.8504" cy="28.1722" rx="14.91" ry="14.91" fill="#FEC437"/>
</g>
<path d="M61.7031 31.8063C97.4224 42.9827 107.329 27.8238 69.9671 22.2231C77.335 24.2642 108.076 36.1375 61.7031 31.8063Z" fill="url(#paint6_linear_2322_5506)"/>
<path d="M61.0799 31.9314C63.7933 46.1195 23.0458 55.3787 4.875 42.6342C8.75788 57.8429 73.2021 60.5815 61.0799 31.9314Z" fill="url(#paint7_linear_2322_5506)"/>
<path d="M77.6086 32.7275L78.2612 26.0965L73.626 26.5538L73.9152 23.7672L86.5379 22.522L86.2486 25.3085L81.6341 25.7638L80.9192 32.7275L77.6086 32.7275Z" fill="#FEC437"/>
<path d="M61.2299 31.5327C66.2082 19.2986 33.4512 14.4073 25.2119 24.364C26.382 8.90629 71.1369 9.91452 61.2299 31.5327Z" fill="url(#paint8_linear_2322_5506)"/>
</g>
</g>
<defs>
<filter id="filter0_d_2322_5506" x="1.875" y="13.875" width="94.7842" height="45.9922" filterUnits="userSpaceOnUse" color-interpolation-filters="sRGB">
<feFlood flood-opacity="0" result="BackgroundImageFix"/>
<feColorMatrix in="SourceAlpha" type="matrix" values="0 0 0 0 0 0 0 0 0 0 0 0 0 0 0 0 0 0 127 0" result="hardAlpha"/>
<feOffset dy="3"/>
<feGaussianBlur stdDeviation="1.5"/>
<feComposite in2="hardAlpha" operator="out"/>
<feColorMatrix type="matrix" values="0 0 0 0 0 0 0 0 0 0 0 0 0 0 0 0 0 0 0.25 0"/>
<feBlend mode="normal" in2="BackgroundImageFix" result="effect1_dropShadow_2322_5506"/>
<feBlend mode="normal" in="SourceGraphic" in2="effect1_dropShadow_2322_5506" result="shape"/>
</filter>
<filter id="filter1_d_2322_5506" x="0" y="0" width="122.534" height="73.7422" filterUnits="userSpaceOnUse" color-interpolation-filters="sRGB">
<feFlood flood-opacity="0" result="BackgroundImageFix"/>
<feColorMatrix in="SourceAlpha" type="matrix" values="0 0 0 0 0 0 0 0 0 0 0 0 0 0 0 0 0 0 127 0" result="hardAlpha"/>
<feOffset dx="12" dy="3"/>
<feGaussianBlur stdDeviation="8.4375"/>
<feComposite in2="hardAlpha" operator="out"/>
<feColorMatrix type="matrix" values="0 0 0 0 0.272374 0 0 0 0 0.340211 0 0 0 0 0.472115 0 0 0 1 0"/>
<feBlend mode="normal" in2="BackgroundImageFix" result="effect1_dropShadow_2322_5506"/>
<feBlend mode="normal" in="SourceGraphic" in2="effect1_dropShadow_2322_5506" result="shape"/>
</filter>
<linearGradient id="paint0_linear_2322_5506" x1="66.3593" y1="36.0635" x2="33.5521" y2="38.8587" gradientUnits="userSpaceOnUse">
<stop offset="0.240473" stop-color="#F1F1F1"/>
<stop offset="0.980519" stop-color="#0037A1"/>
</linearGradient>
<linearGradient id="paint1_linear_2322_5506" x1="53.0659" y1="31.6821" x2="45.25" y2="40.842" gradientUnits="userSpaceOnUse">
<stop stop-color="#D9D9D9"/>
<stop offset="1" stop-color="#5174B6"/>
</linearGradient>
<linearGradient id="paint2_linear_2322_5506" x1="61.379" y1="30.3377" x2="47.7385" y2="22.9947" gradientUnits="userSpaceOnUse">
<stop stop-color="#D9D9D9"/>
<stop offset="1" stop-color="#5B7BB9"/>
</linearGradient>
<linearGradient id="paint3_linear_2322_5506" x1="-3.74338" y1="37.2462" x2="45.3114" y2="34.6788" gradientUnits="userSpaceOnUse">
<stop stop-color="white"/>
<stop offset="1" stop-color="#5E7EBC"/>
</linearGradient>
<linearGradient id="paint4_linear_2322_5506" x1="-3.74338" y1="37.2462" x2="45.3114" y2="34.6788" gradientUnits="userSpaceOnUse">
<stop stop-color="white"/>
<stop offset="1" stop-color="#5E7EBC"/>
</linearGradient>
<linearGradient id="paint5_linear_2322_5506" x1="-3.74338" y1="37.2462" x2="49.9807" y2="33.8702" gradientUnits="userSpaceOnUse">
<stop stop-color="white"/>
<stop offset="1" stop-color="#5E7EBC"/>
</linearGradient>
<linearGradient id="paint6_linear_2322_5506" x1="76.8438" y1="35.7872" x2="88.4848" y2="27.7664" gradientUnits="userSpaceOnUse">
<stop stop-color="#F1F1F1"/>
<stop offset="1" stop-color="#6885BC"/>
</linearGradient>
<linearGradient id="paint7_linear_2322_5506" x1="56.3108" y1="35.0892" x2="3.80467" y2="41.5639" gradientUnits="userSpaceOnUse">
<stop stop-color="#F1F1F1"/>
<stop offset="0.827226" stop-color="#FEC437"/>
</linearGradient>
<linearGradient id="paint8_linear_2322_5506" x1="59.8593" y1="25.143" x2="26.1078" y2="22.0242" gradientUnits="userSpaceOnUse">
<stop stop-color="#F1F1F1"/>
<stop offset="0.628751" stop-color="#EEFF59"/>
</linearGradient>
</defs>
</svg>
