<svg width="25" height="21" viewBox="0 0 25 21" fill="none" xmlns="http://www.w3.org/2000/svg">
<path fill-rule="evenodd" clip-rule="evenodd" d="M15.1443 6.302C12.8254 4.60156 9.56792 5.1035 7.86748 7.42239C6.16832 9.74129 6.67026 12.9988 8.98788 14.6992C11.3068 16.3984 14.5655 15.8964 16.2647 13.5775C17.9651 11.2586 17.4632 8.00116 15.1443 6.302ZM8.81502 12.5929V8.40706L11.2415 10.6607V8.40706H12.0879V12.5929L9.65371 10.3265V12.5929H8.81502ZM13.3913 8.40706V11.758H15.3171V12.5929H12.5527V8.40706H13.3913Z" fill="#F1F1F1"/>
<path fill-rule="evenodd" clip-rule="evenodd" d="M21.9297 3.89867C19.2318 -0.0592099 13.8616 -1.19625 9.7808 1.3813C6.99198 3.14448 5.51049 6.19452 5.62317 9.27016C5.95225 7.55051 6.96509 5.96531 8.56309 4.95504C11.6246 3.02156 15.676 3.9358 17.6095 6.99736C18.2164 7.95642 18.5416 9.01407 18.6108 10.0717L21.8836 15.2524L24.1308 2.5081L21.9297 3.89867Z" fill="#F1F1F1"/>
<path fill-rule="evenodd" clip-rule="evenodd" d="M2.2011 17.1026C4.89901 21.0592 10.2692 22.1962 14.35 19.6187C17.1401 17.8568 18.6203 14.8055 18.5076 11.7298C18.1786 13.4495 17.1657 15.036 15.5677 16.0449C12.5062 17.9784 8.4561 17.0642 6.52134 14.0026C5.91569 13.0436 5.58917 11.9872 5.52003 10.9283L2.24719 5.74756L0 18.4919L2.2011 17.1026Z" fill="#F1F1F1"/>
</svg>
