<svg width="27" height="32" viewBox="0 0 27 32" fill="none" xmlns="http://www.w3.org/2000/svg">
<path fill-rule="evenodd" clip-rule="evenodd" d="M2.85478 12.1277C2.8532 12.2242 2.85161 12.3222 2.8532 12.4187C2.85636 12.6679 2.90707 12.982 2.91975 13.2283C2.92767 13.3796 2.96729 13.5842 2.99582 13.7383L3.22718 14.6906C3.27789 14.8577 3.31909 14.9831 3.37455 15.1372C3.71842 16.0794 4.30792 17.1268 5.00359 17.8903L5.36489 18.2879C5.51226 18.4709 5.98291 18.9161 6.16198 19.0371C6.23012 19.0832 6.26498 19.1307 6.3252 19.1797C6.37115 19.2186 6.37274 19.2085 6.41711 19.2431L6.67382 19.4448C6.72929 19.4823 6.79426 19.5312 6.84972 19.5759C6.90994 19.6234 6.96699 19.6566 7.03196 19.7012L7.59451 20.0614C7.89877 20.2487 8.5057 20.5815 8.83689 20.6982C9.12847 20.8019 9.43906 20.9489 9.73223 21.0483C9.89069 21.1016 10.0587 21.1477 10.2124 21.1952C10.3756 21.2442 10.5483 21.2917 10.7258 21.3306C12.3659 21.7038 14.0599 21.7167 15.7048 21.3465C15.8855 21.3061 16.0392 21.2744 16.2088 21.2226C17.1263 20.946 18.0248 20.6132 18.833 20.1234L19.5888 19.6479C19.6396 19.6134 19.6332 19.6148 19.676 19.5817C19.7188 19.5514 19.7251 19.5528 19.7679 19.5197L20.115 19.2532C20.1989 19.197 20.2116 19.174 20.2829 19.1149C20.5 18.9377 20.7536 18.7533 20.9342 18.5444L21.0848 18.3902C21.1497 18.3312 21.1672 18.2952 21.2337 18.2361C21.2781 18.1957 21.2686 18.2001 21.305 18.1554C21.6077 17.7895 21.912 17.4596 22.1814 17.0605L23.0307 15.506C23.167 15.1415 23.3207 14.7771 23.4174 14.401C23.5901 13.7225 23.7074 12.9071 23.7106 12.109C23.7106 12.0182 23.7201 11.864 23.7058 11.7805C23.6884 11.6796 23.7011 11.5788 23.6868 11.4664C23.5521 10.4003 23.3556 9.49847 22.923 8.49145C22.8754 8.37908 22.6171 7.82875 22.5332 7.82875C22.4317 7.82875 22.2701 7.98002 22.1956 8.04052L21.8755 8.28832C21.6156 8.51162 21.0356 8.83721 20.687 8.99424C20.5064 9.07636 20.3495 9.14983 20.1577 9.21754C19.3385 9.50568 18.7807 9.60652 17.8457 9.60508C17.2784 9.60364 16.6461 9.47398 16.166 9.30254C15.9378 9.22043 15.4877 8.97695 15.2896 8.97551C15.2405 8.97551 15.0345 9.45669 14.9981 9.52296C14.8967 9.71025 14.8142 9.88601 14.7223 10.0819C14.6986 10.1338 14.6796 10.154 14.6558 10.2087C14.5116 10.5329 14.0457 11.3915 13.9569 11.6148C13.911 11.7329 14.0774 11.6897 14.4308 11.7416C14.548 11.7574 14.6986 11.769 14.8349 11.7906C15.1787 11.8453 15.483 11.8612 15.8237 11.9101L16.4227 11.9894C16.4005 12.0326 16.3942 12.0801 16.3751 12.132C16.2611 12.4504 16.0915 12.7529 15.9552 13.0598C15.8047 13.3998 15.5939 13.7571 15.4133 14.0855C15.269 14.3463 14.426 15.8388 14.426 16.2019C14.4244 16.2696 15.0662 16.2653 15.1565 16.2653C15.1296 16.3675 14.9489 16.5476 14.8634 16.6225L14.5243 16.9568C14.4102 17.0965 13.4546 17.9624 13.3469 18.0257C13.1123 17.6209 12.4816 16.6975 12.1964 16.271C12.1647 16.2235 12.133 16.1817 12.1187 16.1342C12.2629 16.1342 12.4087 16.1356 12.5529 16.1356L12.9871 16.1154L13.7921 13.6865C13.5053 13.6865 13.163 13.626 12.873 13.5856C12.7478 13.5683 12.6718 13.5712 12.545 13.5511C12.4404 13.5352 12.3438 13.5251 12.2392 13.5165C12.1457 13.5093 12.0141 13.4833 11.9191 13.4761C11.7131 13.4589 11.488 13.4128 11.2804 13.4113C11.2804 13.1174 11.3327 12.8466 11.3866 12.5728C11.6481 11.2561 11.9444 9.96525 12.2154 8.6456C12.2693 8.37908 12.3327 8.11832 12.3691 7.84892C12.385 7.71637 12.4246 7.56366 12.4373 7.43256C12.4499 7.31011 12.4563 7.10409 12.4848 6.99748C12.4151 6.9024 12.301 6.84333 12.1964 6.77994C11.4231 6.31029 10.2995 5.97462 9.35666 5.97317C8.73547 5.97173 8.1745 6.02216 7.61195 6.14749C7.05256 6.27283 6.51536 6.4558 6.01302 6.70647C5.95597 6.73528 5.94012 6.74969 5.88308 6.77562C5.46631 6.96867 4.0306 7.84315 3.80083 8.18315C3.20975 9.05619 2.85636 11.0702 2.85478 12.1277Z" fill="#F1F1F1"/>
<path fill-rule="evenodd" clip-rule="evenodd" d="M4.0601e-05 11.8506C-0.00154406 12.6819 0.0428266 13.5074 0.209216 14.2925C0.256756 14.5173 0.290034 14.6988 0.348667 14.912C0.458009 15.3082 0.551504 15.6828 0.711555 16.0559L1.2963 17.3712C1.45318 17.6579 1.60689 17.9547 1.79388 18.2255L2.02524 18.5756C2.06011 18.6232 2.0712 18.6462 2.10289 18.6923L2.34852 19.0294C2.58938 19.3536 2.86036 19.672 3.13768 19.9716L3.62734 20.4615C3.68122 20.509 3.67805 20.5148 3.71925 20.5637C3.86029 20.728 4.4688 21.2293 4.66371 21.3676L5.11534 21.7047C5.15179 21.7292 5.19457 21.7566 5.23261 21.7854C5.53528 22.0044 5.8633 22.1975 6.19133 22.3891L6.9694 22.8025C7.02328 22.8285 7.05339 22.84 7.10727 22.8659C7.5684 23.0763 8.03746 23.2563 8.51445 23.4364C8.6127 23.4724 8.71412 23.4955 8.8187 23.5344C9.24656 23.6943 9.93272 23.8585 10.4034 23.9435C10.7488 24.0069 11.0848 24.0689 11.4572 24.1092L12.1909 24.1899C12.2558 24.1971 12.3319 24.187 12.3953 24.1913C12.4809 24.1971 12.4698 24.2129 12.5775 24.2144C12.7138 24.2158 12.8533 24.2144 12.9895 24.2144L13.7438 24.2158C14.0259 24.2158 14.2557 24.1841 14.5203 24.1769C14.9783 24.164 16.1684 23.9479 16.5994 23.8484C16.6992 23.8254 16.8276 23.7937 16.9227 23.7678C17.4884 23.6107 18.0272 23.4451 18.5723 23.2362C19.0873 23.0374 19.5897 22.8011 20.0651 22.5389L20.8019 22.1081C21.0745 21.9439 21.5024 21.6702 21.7401 21.4656L22.1806 21.1184C22.3755 20.9902 22.6164 20.7337 22.7923 20.5738C22.8937 20.4831 23.0126 20.3952 23.0997 20.2929C23.2946 20.0682 23.5545 19.8376 23.7605 19.5841L23.9396 19.3738C24.4372 18.7773 24.8159 18.1924 25.182 17.5311C25.2232 17.4562 25.2739 17.3784 25.3103 17.2949C25.3579 17.1897 25.3943 17.1364 25.4371 17.037C25.5908 16.6812 25.7683 16.3268 25.903 15.9623C25.9743 15.7663 26.0361 15.5935 26.1042 15.3975L26.277 14.8256C26.4053 14.2925 26.5416 13.7595 26.5622 13.2149C26.567 13.1227 26.5828 13.1429 26.5876 13.0493L26.5891 12.218L24.4641 12.2137C24.4467 12.4038 24.4039 12.5407 24.396 12.7539C24.3928 12.8404 24.3817 12.8173 24.3722 12.8793C24.3659 12.9311 24.3754 12.9931 24.3706 13.0449C24.3643 13.127 24.3548 13.0867 24.3468 13.1688C24.3437 13.2207 24.3532 13.2812 24.3453 13.3331C24.2977 13.7062 24.2438 14.062 24.1488 14.402C24.1218 14.4957 24.1091 14.5619 24.0838 14.6556L23.9317 15.1411C23.7431 15.7923 23.4071 16.4046 23.0664 16.9938C22.8905 17.2992 22.6861 17.5845 22.4769 17.8711L21.4152 19.0871C21.3518 19.1432 21.2979 19.1865 21.2488 19.247C21.1141 19.4155 20.9034 19.5481 20.7386 19.6979C20.7085 19.7253 20.6894 19.7469 20.6577 19.7685C20.6086 19.8031 20.6054 19.7973 20.5563 19.842L20.0952 20.1921C20.0508 20.2209 20.027 20.2367 19.989 20.2626C19.9225 20.3073 19.867 20.3448 19.7925 20.3952C19.7164 20.4456 19.6705 20.473 19.5913 20.5234C19.3884 20.6473 19.184 20.7842 18.9685 20.8908C18.81 20.9671 18.6817 21.0406 18.5248 21.1112C18.211 21.2509 17.9242 21.3892 17.5946 21.5088L16.8482 21.7638C15.8578 22.0606 14.6851 22.2652 13.6345 22.2637C12.4428 22.2608 11.8755 22.2392 10.6331 21.9741C10.4493 21.9353 10.2782 21.8848 10.1134 21.8445L9.09285 21.5232C8.78067 21.4109 8.45899 21.2942 8.16741 21.1386C8.08817 21.0968 8.02479 21.0709 7.9408 21.0334L7.29109 20.6876C7.1453 20.6012 7.01852 20.5335 6.88066 20.4384L5.92827 19.7671C5.75396 19.6489 5.12168 19.0827 4.99808 18.93C4.96638 18.8911 4.94737 18.8767 4.91092 18.8436C4.73819 18.6894 4.59082 18.5094 4.4482 18.3307L4.15503 17.9734C4.06154 17.8467 3.98072 17.7328 3.89198 17.6118L3.27079 16.6206L2.77479 15.5344C2.48797 14.827 2.28513 14.0332 2.21223 13.2682C2.2059 13.202 2.19163 13.0637 2.17579 12.9887C2.15677 12.8908 2.1742 12.7986 2.15519 12.6992C2.12032 12.5277 2.13617 11.4083 2.17737 11.1749C2.2059 11.0064 2.21699 10.8177 2.2471 10.6347C2.41666 9.59022 2.75419 8.54286 3.27713 7.60067L3.50691 7.20593C3.83969 6.61382 4.29765 6.08941 4.74928 5.57222C4.9442 5.34891 5.16922 5.13282 5.39107 4.93112L6.8553 3.8319C7.31961 3.51351 7.81878 3.28445 8.31478 3.02081C8.55248 2.89547 9.21487 2.65776 9.50645 2.56988C10.1752 2.36963 10.958 2.16793 11.6759 2.09446C12.0879 2.05268 12.4666 1.97056 12.8865 1.972L12.9373 0.0400771C12.5395 -0.044922 11.1973 0.122195 10.7457 0.202872C10.6363 0.223041 10.5286 0.247532 10.4097 0.272024C9.5635 0.449225 8.78543 0.724391 7.98675 1.01396C7.61594 1.14939 7.25939 1.33811 6.90284 1.50235L6.39417 1.76743C6.30543 1.81785 6.22778 1.85387 6.13904 1.90717C6.04712 1.96336 5.97898 1.99794 5.88707 2.05268C5.79516 2.10743 5.72861 2.14776 5.63987 2.20107L5.17397 2.50361C5.01551 2.60878 4.85387 2.71106 4.71125 2.83208L4.50525 2.99631C4.44978 3.03521 4.44503 3.03233 4.39115 3.07987C4.35153 3.11589 4.33093 3.13894 4.28498 3.17063C4.11225 3.28589 3.62259 3.7397 3.46412 3.89817C3.41816 3.94427 3.42133 3.95724 3.37379 4.00334L2.90632 4.49316C2.83976 4.5724 2.79381 4.62282 2.72725 4.7035C2.66386 4.78129 2.61157 4.8418 2.54977 4.91672L1.46903 6.51009C1.41832 6.60085 1.37712 6.66712 1.33591 6.7622L1.08554 7.26355C1.04275 7.34999 1.0063 7.43067 0.963517 7.52719C0.800297 7.89168 0.667185 8.24176 0.548335 8.62498C0.484948 8.82811 0.4279 9.01108 0.372437 9.21421C0.215555 9.77895 0.123645 10.384 0.0491652 10.9589L4.0601e-05 11.8506Z" fill="#F1F1F1"/>
<path fill-rule="evenodd" clip-rule="evenodd" d="M13.4159 0.43652L13.4111 1.9521C13.6092 1.95354 13.8311 2.00684 14.0054 2.01549C14.102 2.02125 14.213 2.03421 14.3112 2.05006C14.4221 2.06735 14.5093 2.06879 14.6202 2.08176C15.6122 2.18836 16.7278 2.39582 17.6359 2.77183L18.5486 3.16801C18.9781 3.3625 19.6468 3.76013 20.0144 4.01656C20.0857 4.06555 20.1396 4.103 20.2093 4.15055L20.5833 4.43436C20.6293 4.47469 20.6309 4.46605 20.6737 4.49775L21.1189 4.88096C21.1776 4.93427 21.2204 4.97316 21.279 5.02647L21.6767 5.43273C21.7211 5.47451 21.7275 5.4774 21.7639 5.52061L22.8938 6.98433C23.6195 8.12965 23.9111 8.81397 24.2011 10.1523L24.377 11.2357C24.3865 11.3121 24.4103 11.4288 24.4198 11.508C24.4404 11.6722 24.4325 11.7371 24.5117 11.7371L26.6589 11.7414C26.6605 10.7646 26.6637 9.7893 26.6669 8.81253C26.6684 7.82711 26.6478 6.88348 26.651 5.8851C26.6526 4.90833 26.6558 3.93301 26.6589 2.95624C26.6605 1.96506 26.6399 1.02863 26.6431 0.0288132L13.4397 0C13.4397 0.172879 13.4159 0.26076 13.4159 0.43652Z" fill="#F1F1F1"/>
<path fill-rule="evenodd" clip-rule="evenodd" d="M6.28266 29.4126V29.5999L7.14947 29.6013L7.15264 28.7499C7.15898 28.6707 7.17166 28.6966 7.17641 28.6059C7.1986 28.1059 7.13521 27.5815 7.20018 27.0874C7.20811 27.0355 7.20177 26.9563 7.20335 26.9015C7.34122 26.9938 7.59635 27.7213 7.6534 27.8812L8.20486 29.2686C8.25082 29.3766 8.31579 29.4904 8.38393 29.5826L9.43456 29.6057C9.52489 29.6071 9.51221 29.4861 9.58035 29.3031C9.75625 28.8263 10.0526 28.1232 10.2919 27.6622C10.3489 27.5527 10.3933 27.449 10.4456 27.3453L10.6056 27.0341L10.6025 28.5713C10.5787 28.845 10.5042 29.3838 10.6722 29.5625C10.8259 29.7252 11.2553 29.61 11.5136 29.61C11.5152 29.0136 11.539 28.4848 11.5406 27.887L11.5453 25.811C11.371 25.8095 11.2902 25.7894 11.1111 25.7879L10.1286 25.7865C9.76734 26.2763 9.72772 26.6033 9.50587 27.1954C9.35057 27.6104 9.29353 27.8495 9.09227 28.3148L8.91162 28.6505C8.83239 28.5972 8.51545 27.7515 8.45365 27.5931C8.4077 27.4721 8.3554 27.3582 8.30628 27.2286L8.01629 26.5169C7.96399 26.3916 7.91487 26.2705 7.8705 26.1524C7.83563 26.0631 7.73897 25.8643 7.73105 25.7822L6.2684 25.7778C6.26523 27.0125 6.28583 28.1794 6.28266 29.4126Z" fill="#F1F1F1"/>
<path fill-rule="evenodd" clip-rule="evenodd" d="M16.0415 27.668C16.0399 28.5166 16.2903 29.1577 17.0779 29.4444C17.6896 29.6662 18.2442 29.6648 18.9145 29.6677C19.0651 29.6691 19.1379 29.6489 19.2568 29.6475C19.5611 29.6446 19.485 29.6605 19.7845 29.6302C19.8352 29.6244 19.9113 29.6288 19.9651 29.6288C19.9667 28.8955 20.0238 28.9416 19.8083 28.943C19.71 28.943 19.6577 28.9401 19.5706 28.9545C19.4359 28.9776 19.054 28.9603 18.8701 28.9617L18.6641 28.9632C18.2711 28.9344 17.5311 28.9704 17.3203 28.4373C17.2855 28.348 17.2506 28.1838 17.2506 28.0656L19.9699 28.0714L19.9715 27.3655L17.23 27.3597C17.2934 27.1163 17.2791 27.0413 17.4503 26.8324C17.6531 26.5832 18.1 26.4881 18.4423 26.4896C18.9605 26.491 19.4042 26.5126 19.9271 26.5141C19.9604 26.3873 19.9525 26.2519 19.9509 26.0977C19.9509 25.9003 19.9715 25.9536 19.9762 25.8874C19.981 25.7851 19.9144 25.8081 19.8146 25.8067C19.6989 25.8067 19.7037 25.7865 19.588 25.7851C18.615 25.7707 17.1318 25.6237 16.4424 26.4521C16.1635 26.7863 16.0431 27.2056 16.0415 27.668Z" fill="#F1F1F1"/>
<path fill-rule="evenodd" clip-rule="evenodd" d="M2.99826 27.557L3.00302 25.772L2.0443 25.7691L2.0332 29.5912L2.99351 29.5926L2.99826 27.7644C3.11711 27.822 3.06165 27.8134 3.15198 27.8955C3.17892 27.9214 3.19476 27.9315 3.22012 27.9575C3.5323 28.2542 4.44506 29.535 4.6273 29.5854C4.76358 29.6214 5.63356 29.5984 5.84908 29.5984C5.79678 29.3967 5.33723 28.9544 5.13598 28.7513L4.63522 28.2312C4.59561 28.1923 4.60828 28.1937 4.57659 28.1591C4.52113 28.0929 4.16299 27.7169 4.16299 27.6636C4.16299 27.6146 4.32621 27.446 4.36425 27.41L4.92522 26.8395C5.18193 26.609 5.77935 26.0687 5.9505 25.7777C5.30078 25.7763 4.81429 25.6452 4.50053 25.9319L4.24857 26.2013C4.20895 26.2503 4.18042 26.2776 4.13764 26.3295C4.05999 26.4217 3.99819 26.4966 3.92054 26.5888L3.37858 27.2184C3.33421 27.2703 3.30252 27.2847 3.25973 27.338C3.16941 27.4475 3.11711 27.4849 2.99826 27.557Z" fill="#F1F1F1"/>
<path fill-rule="evenodd" clip-rule="evenodd" d="M20.1328 26.4924L21.6414 26.4967C21.6398 26.6509 21.6636 26.7157 21.662 26.8699L21.6573 29.2369C21.6557 29.3046 21.6525 29.3795 21.6557 29.4458C21.6588 29.5394 21.6794 29.5279 21.6779 29.6316L22.6604 29.6345L22.6667 26.9967C22.6683 26.8079 22.6905 26.7042 22.692 26.5198C23.2261 26.5198 23.684 26.5011 24.2212 26.5011C24.2228 26.2518 24.2466 26.0732 24.2466 25.8167L20.1344 25.8081L20.1328 26.4924Z" fill="#F1F1F1"/>
<path fill-rule="evenodd" clip-rule="evenodd" d="M11.7964 26.3932V26.4753L13.3034 26.4782L13.3494 26.9147C13.3573 27.1409 13.3509 29.0296 13.324 29.1823C13.3113 29.2558 13.3193 29.3523 13.3193 29.4272C13.3161 29.6808 13.2052 29.6145 14.3239 29.6174L14.3319 26.5013C14.4475 26.5027 14.4555 26.4811 14.5822 26.4811L15.907 26.484L15.9086 25.7997L11.8202 25.791C11.8202 26.0158 11.7964 26.1641 11.7964 26.3932Z" fill="#F1F1F1"/>
<path fill-rule="evenodd" clip-rule="evenodd" d="M13.2681 31.0893C13.2681 31.4207 13.3124 31.6786 13.3124 31.9408H13.791C13.7926 31.8053 13.8148 31.7405 13.8148 31.5878C13.8148 31.3631 13.8385 31.3213 13.8385 31.2348L14.6388 31.2363C14.8321 31.2377 14.9288 31.2161 15.119 31.2176C15.119 31.1326 15.138 31.1167 15.138 31.072C15.138 31.0274 15.119 31.0101 15.119 30.9265C14.9748 30.9265 14.9288 30.9049 14.7767 30.9049L13.8164 30.9035C13.8449 30.6038 14.0065 30.5073 14.3662 30.5087C14.7085 30.5116 14.9763 30.49 15.3265 30.4915C15.5452 30.4915 15.6752 30.5116 15.897 30.5131L15.8939 31.9451L16.3502 31.9465L16.3772 30.5131L16.7195 30.516C16.8225 30.5116 16.8003 30.4958 16.9017 30.4929C17.1822 30.4857 17.0839 30.5505 17.0855 30.2033C16.9825 30.2019 17.0063 30.186 16.9033 30.1817L14.7783 30.1572C14.6451 30.1572 14.5897 30.1788 14.436 30.1774C13.7213 30.1731 13.2697 30.3935 13.2681 31.0893Z" fill="#F1F1F1"/>
<path fill-rule="evenodd" clip-rule="evenodd" d="M22.8192 30.5478L22.8145 31.9611C23.3548 31.9611 23.2487 32.0662 23.2502 31.4208C23.2502 31.2134 23.2518 31.0059 23.2518 30.7985C23.4309 30.918 23.6496 31.7637 23.6828 31.817C23.7859 31.9884 24.0964 31.9625 24.2993 31.964C24.3452 31.8876 24.3833 31.7925 24.4245 31.7018L24.8048 30.9267C24.8048 31.0996 24.8048 31.2724 24.8032 31.4453C24.8032 31.624 24.8254 31.7637 24.8254 31.964L25.2358 31.987L25.2643 30.2006L24.5782 30.1991L24.4498 30.4974C24.407 30.6112 24.3611 30.7221 24.3294 30.8258C24.2248 31.1802 24.0679 31.3834 24.0505 31.4439C23.9618 31.3848 23.8049 30.9324 23.7621 30.8345L23.4816 30.1963L22.843 30.1948C22.8414 30.3403 22.8192 30.398 22.8192 30.5478Z" fill="#F1F1F1"/>
<path fill-rule="evenodd" clip-rule="evenodd" d="M21.5135 31.9988L21.8558 32.0002C22.1093 32.0002 22.2821 31.9599 22.5182 31.9599L22.5214 30.9212C22.0222 30.9212 21.4026 30.7339 21.401 31.1056V31.1474C21.6387 31.2626 21.7591 31.2525 22.0174 31.2525L22.0158 31.6271C21.9271 31.6285 21.916 31.6473 21.7417 31.6473C21.3598 31.6458 20.9652 31.5479 20.9668 31.2093C20.9684 30.4256 21.4311 30.5423 22.2472 30.548C22.3756 30.548 22.3993 30.5293 22.4992 30.5264C22.4992 30.3953 22.5229 30.3536 22.5229 30.2153C22.3772 30.2124 22.0872 30.1519 21.6783 30.1519C21.1395 30.1504 20.6103 30.3262 20.4692 30.7958C20.2743 31.4441 20.6578 31.9974 21.5135 31.9988Z" fill="#F1F1F1"/>
<path fill-rule="evenodd" clip-rule="evenodd" d="M24.4907 28.7036C24.4891 29.0263 24.4669 29.2741 24.4653 29.5968L25.3337 29.6602L25.3401 26.8149L24.4954 26.8135L24.4907 28.7036Z" fill="#F1F1F1"/>
<path fill-rule="evenodd" clip-rule="evenodd" d="M18.2251 31.0159C18.2251 31.2449 18.2647 31.412 18.3693 31.5907L18.4818 31.7376C18.4977 31.7535 18.6007 31.8212 18.626 31.8342C18.9952 32.0229 20.0823 32.128 20.2218 31.487C20.2392 31.4063 20.2646 30.9136 20.2503 30.8415C20.2186 30.6831 20.2487 30.4929 20.2376 30.356C20.2313 30.2754 20.2154 30.2898 20.2154 30.1889H19.7591C19.7575 30.3042 19.7179 30.3949 19.7369 30.5404L19.7559 31.1023C19.7543 31.4927 19.5832 31.6425 19.206 31.6411C18.6403 31.6397 18.7972 30.7983 18.7987 30.2696C18.7987 30.1875 18.7259 30.2134 18.645 30.2019L18.3186 30.186C18.3091 30.297 18.2726 30.477 18.2552 30.5837L18.2251 31.0159Z" fill="#F1F1F1"/>
<path fill-rule="evenodd" clip-rule="evenodd" d="M24.5412 26.5225L25.3414 26.5239L25.343 25.818L24.5665 25.7964C24.4762 25.7964 24.4968 25.8627 24.4968 25.9405V26.3784C24.4905 26.4432 24.4334 26.5225 24.5412 26.5225Z" fill="#F1F1F1"/>
<path fill-rule="evenodd" clip-rule="evenodd" d="M4.0601e-05 11.8506C-0.00154406 12.6819 0.0428266 13.5074 0.209216 14.2925C0.256756 14.5173 0.290034 14.6988 0.348667 14.912C0.458009 15.3082 0.551504 15.6828 0.711555 16.0559L1.2963 17.3712C1.45318 17.6579 1.60689 17.9547 1.79388 18.2255L2.02524 18.5756C2.06011 18.6232 2.0712 18.6462 2.10289 18.6923L2.34852 19.0294C2.58938 19.3536 2.86036 19.672 3.13768 19.9716L3.62734 20.4615C3.68122 20.509 3.67805 20.5148 3.71925 20.5637C3.86029 20.728 4.4688 21.2293 4.66371 21.3676L5.11534 21.7047C5.15179 21.7292 5.19457 21.7566 5.23261 21.7854C5.53528 22.0044 5.8633 22.1975 6.19133 22.3891L6.9694 22.8025C7.02328 22.8285 7.05339 22.84 7.10727 22.8659C7.5684 23.0763 8.03746 23.2563 8.51445 23.4364C8.6127 23.4724 8.71412 23.4955 8.8187 23.5344C9.24656 23.6943 9.93272 23.8585 10.4034 23.9435C10.7488 24.0069 11.0848 24.0689 11.4572 24.1092L12.1909 24.1899C12.2558 24.1971 12.3319 24.187 12.3953 24.1913C12.4809 24.1971 12.4698 24.2129 12.5775 24.2144C12.7138 24.2158 12.8533 24.2144 12.9895 24.2144L13.7438 24.2158C14.0259 24.2158 14.2557 24.1841 14.5203 24.1769C14.9783 24.164 16.1684 23.9479 16.5994 23.8484C16.6992 23.8254 16.8276 23.7937 16.9227 23.7678C17.4884 23.6107 18.0272 23.4451 18.5723 23.2362C19.0873 23.0374 19.5897 22.8011 20.0651 22.5389L20.8019 22.1081C21.0745 21.9439 21.5024 21.6702 21.7401 21.4656L22.1806 21.1184C22.3755 20.9902 22.6164 20.7337 22.7923 20.5738C22.8937 20.4831 23.0126 20.3952 23.0997 20.2929C23.2946 20.0682 23.5545 19.8376 23.7605 19.5841L23.9396 19.3738C24.4372 18.7773 24.8159 18.1924 25.182 17.5311C25.2232 17.4562 25.2739 17.3784 25.3103 17.2949C25.3579 17.1897 25.3943 17.1364 25.4371 17.037C25.5908 16.6812 25.7683 16.3268 25.903 15.9623C25.9743 15.7663 26.0361 15.5935 26.1042 15.3975L26.277 14.8256C26.4053 14.2925 26.5416 13.7595 26.5622 13.2149C26.567 13.1227 26.5828 13.1429 26.5876 13.0493L26.5891 12.218L24.4641 12.2137C24.4467 12.4038 24.4039 12.5407 24.396 12.7539C24.3928 12.8404 24.3817 12.8173 24.3722 12.8793C24.3659 12.9311 24.3754 12.9931 24.3706 13.0449C24.3643 13.127 24.3548 13.0867 24.3468 13.1688C24.3437 13.2207 24.3532 13.2812 24.3453 13.3331C24.2977 13.7062 24.2438 14.062 24.1488 14.402C24.1218 14.4957 24.1091 14.5619 24.0838 14.6556L23.9317 15.1411C23.7431 15.7923 23.4071 16.4046 23.0664 16.9938C22.8905 17.2992 22.6861 17.5845 22.4769 17.8711L21.4152 19.0871C21.3518 19.1432 21.2979 19.1865 21.2488 19.247C21.1141 19.4155 20.9034 19.5481 20.7386 19.6979C20.7085 19.7253 20.6894 19.7469 20.6577 19.7685C20.6086 19.8031 20.6054 19.7973 20.5563 19.842L20.0952 20.1921C20.0508 20.2209 20.027 20.2367 19.989 20.2626C19.9225 20.3073 19.867 20.3448 19.7925 20.3952C19.7164 20.4456 19.6705 20.473 19.5913 20.5234C19.3884 20.6473 19.184 20.7842 18.9685 20.8908C18.81 20.9671 18.6817 21.0406 18.5248 21.1112C18.211 21.2509 17.9242 21.3892 17.5946 21.5088L16.8482 21.7638C15.8578 22.0606 14.6851 22.2652 13.6345 22.2637C12.4428 22.2608 11.8755 22.2392 10.6331 21.9741C10.4493 21.9353 10.2782 21.8848 10.1134 21.8445L9.09285 21.5232C8.78067 21.4109 8.45899 21.2942 8.16741 21.1386C8.08817 21.0968 8.02479 21.0709 7.9408 21.0334L7.29109 20.6876C7.1453 20.6012 7.01852 20.5335 6.88066 20.4384L5.92827 19.7671C5.75396 19.6489 5.12168 19.0827 4.99808 18.93C4.96638 18.8911 4.94737 18.8767 4.91092 18.8436C4.73819 18.6894 4.59082 18.5094 4.4482 18.3307L4.15503 17.9734C4.06154 17.8467 3.98072 17.7328 3.89198 17.6118L3.27079 16.6206L2.77479 15.5344C2.48797 14.827 2.28513 14.0332 2.21223 13.2682C2.2059 13.202 2.19163 13.0637 2.17579 12.9887C2.15677 12.8908 2.1742 12.7986 2.15519 12.6992C2.12032 12.5277 2.13617 11.4083 2.17737 11.1749C2.2059 11.0064 2.21699 10.8177 2.2471 10.6347C2.41666 9.59022 2.75419 8.54286 3.27713 7.60067L3.50691 7.20593C3.83969 6.61382 4.29765 6.08941 4.74928 5.57222C4.9442 5.34891 5.16922 5.13282 5.39107 4.93112L6.8553 3.8319C7.31961 3.51351 7.81878 3.28445 8.31478 3.02081C8.55248 2.89547 9.21487 2.65776 9.50645 2.56988C10.1752 2.36963 10.958 2.16793 11.6759 2.09446C12.0879 2.05268 12.4666 1.97056 12.8865 1.972L12.9373 0.0400771C12.5395 -0.044922 11.1973 0.122195 10.7457 0.202872C10.6363 0.223041 10.5286 0.247532 10.4097 0.272024C9.5635 0.449225 8.78543 0.724391 7.98675 1.01396C7.61594 1.14939 7.25939 1.33811 6.90284 1.50235L6.39417 1.76743C6.30543 1.81785 6.22778 1.85387 6.13904 1.90717C6.04712 1.96336 5.97898 1.99794 5.88707 2.05268C5.79516 2.10743 5.72861 2.14776 5.63987 2.20107L5.17397 2.50361C5.01551 2.60878 4.85387 2.71106 4.71125 2.83208L4.50525 2.99631C4.44978 3.03521 4.44503 3.03233 4.39115 3.07987C4.35153 3.11589 4.33093 3.13894 4.28498 3.17063C4.11225 3.28589 3.62259 3.7397 3.46412 3.89817C3.41816 3.94427 3.42133 3.95724 3.37379 4.00334L2.90632 4.49316C2.83976 4.5724 2.79381 4.62282 2.72725 4.7035C2.66386 4.78129 2.61157 4.8418 2.54977 4.91672L1.46903 6.51009C1.41832 6.60085 1.37712 6.66712 1.33591 6.7622L1.08554 7.26355C1.04275 7.34999 1.0063 7.43067 0.963517 7.52719C0.800297 7.89168 0.667185 8.24176 0.548335 8.62498C0.484948 8.82811 0.4279 9.01108 0.372437 9.21421C0.215555 9.77895 0.123645 10.384 0.0491652 10.9589L4.0601e-05 11.8506Z" fill="#F1F1F1"/>
<path fill-rule="evenodd" clip-rule="evenodd" d="M13.4159 0.43652L13.4111 1.9521C13.6092 1.95354 13.8311 2.00684 14.0054 2.01549C14.102 2.02125 14.213 2.03421 14.3112 2.05006C14.4221 2.06735 14.5093 2.06879 14.6202 2.08176C15.6122 2.18836 16.7278 2.39582 17.6359 2.77183L18.5486 3.16801C18.9781 3.3625 19.6468 3.76013 20.0144 4.01656C20.0857 4.06555 20.1396 4.103 20.2093 4.15055L20.5833 4.43436C20.6293 4.47469 20.6309 4.46605 20.6737 4.49775L21.1189 4.88096C21.1776 4.93427 21.2204 4.97316 21.279 5.02647L21.6767 5.43273C21.7211 5.47451 21.7275 5.4774 21.7639 5.52061L22.8938 6.98433C23.6195 8.12965 23.9111 8.81397 24.2011 10.1523L24.377 11.2357C24.3865 11.3121 24.4103 11.4288 24.4198 11.508C24.4404 11.6722 24.4325 11.7371 24.5117 11.7371L26.6589 11.7414C26.6605 10.7646 26.6637 9.7893 26.6669 8.81253C26.6684 7.82711 26.6478 6.88348 26.651 5.8851C26.6526 4.90833 26.6558 3.93301 26.6589 2.95624C26.6605 1.96506 26.6399 1.02863 26.6431 0.0288132L13.4397 0C13.4397 0.172879 13.4159 0.26076 13.4159 0.43652Z" fill="#F1F1F1"/>
<path fill-rule="evenodd" clip-rule="evenodd" d="M6.28266 29.4126V29.5999L7.14947 29.6013L7.15264 28.7499C7.15898 28.6707 7.17166 28.6966 7.17641 28.6059C7.1986 28.1059 7.13521 27.5815 7.20018 27.0874C7.20811 27.0355 7.20177 26.9563 7.20335 26.9015C7.34122 26.9938 7.59635 27.7213 7.6534 27.8812L8.20486 29.2686C8.25082 29.3766 8.31579 29.4904 8.38393 29.5826L9.43456 29.6057C9.52489 29.6071 9.51221 29.4861 9.58035 29.3031C9.75625 28.8263 10.0526 28.1232 10.2919 27.6622C10.3489 27.5527 10.3933 27.449 10.4456 27.3453L10.6056 27.0341L10.6025 28.5713C10.5787 28.845 10.5042 29.3838 10.6722 29.5625C10.8259 29.7252 11.2553 29.61 11.5136 29.61C11.5152 29.0136 11.539 28.4848 11.5406 27.887L11.5453 25.811C11.371 25.8095 11.2902 25.7894 11.1111 25.7879L10.1286 25.7865C9.76734 26.2763 9.72772 26.6033 9.50587 27.1954C9.35057 27.6104 9.29353 27.8495 9.09227 28.3148L8.91162 28.6505C8.83239 28.5972 8.51545 27.7515 8.45365 27.5931C8.4077 27.4721 8.3554 27.3582 8.30628 27.2286L8.01629 26.5169C7.96399 26.3916 7.91487 26.2705 7.8705 26.1524C7.83563 26.0631 7.73897 25.8643 7.73105 25.7822L6.2684 25.7778C6.26523 27.0125 6.28583 28.1794 6.28266 29.4126Z" fill="#F1F1F1"/>
<path fill-rule="evenodd" clip-rule="evenodd" d="M16.0415 27.668C16.0399 28.5166 16.2903 29.1577 17.0779 29.4444C17.6896 29.6662 18.2442 29.6648 18.9145 29.6677C19.0651 29.6691 19.1379 29.6489 19.2568 29.6475C19.5611 29.6446 19.485 29.6605 19.7845 29.6302C19.8352 29.6244 19.9113 29.6288 19.9651 29.6288C19.9667 28.8955 20.0238 28.9416 19.8083 28.943C19.71 28.943 19.6577 28.9401 19.5706 28.9545C19.4359 28.9776 19.054 28.9603 18.8701 28.9617L18.6641 28.9632C18.2711 28.9344 17.5311 28.9704 17.3203 28.4373C17.2855 28.348 17.2506 28.1838 17.2506 28.0656L19.9699 28.0714L19.9715 27.3655L17.23 27.3597C17.2934 27.1163 17.2791 27.0413 17.4503 26.8324C17.6531 26.5832 18.1 26.4881 18.4423 26.4896C18.9605 26.491 19.4042 26.5126 19.9271 26.5141C19.9604 26.3873 19.9525 26.2519 19.9509 26.0977C19.9509 25.9003 19.9715 25.9536 19.9762 25.8874C19.981 25.7851 19.9144 25.8081 19.8146 25.8067C19.6989 25.8067 19.7037 25.7865 19.588 25.7851C18.615 25.7707 17.1318 25.6237 16.4424 26.4521C16.1635 26.7863 16.0431 27.2056 16.0415 27.668Z" fill="#F1F1F1"/>
<path fill-rule="evenodd" clip-rule="evenodd" d="M2.99826 27.557L3.00302 25.772L2.0443 25.7691L2.0332 29.5912L2.99351 29.5926L2.99826 27.7644C3.11711 27.822 3.06165 27.8134 3.15198 27.8955C3.17892 27.9214 3.19476 27.9315 3.22012 27.9575C3.5323 28.2542 4.44506 29.535 4.6273 29.5854C4.76358 29.6214 5.63356 29.5984 5.84908 29.5984C5.79678 29.3967 5.33723 28.9544 5.13598 28.7513L4.63522 28.2312C4.59561 28.1923 4.60828 28.1937 4.57659 28.1591C4.52113 28.0929 4.16299 27.7169 4.16299 27.6636C4.16299 27.6146 4.32621 27.446 4.36425 27.41L4.92522 26.8395C5.18193 26.609 5.77935 26.0687 5.9505 25.7777C5.30078 25.7763 4.81429 25.6452 4.50053 25.9319L4.24857 26.2013C4.20895 26.2503 4.18042 26.2776 4.13764 26.3295C4.05999 26.4217 3.99819 26.4966 3.92054 26.5888L3.37858 27.2184C3.33421 27.2703 3.30252 27.2847 3.25973 27.338C3.16941 27.4475 3.11711 27.4849 2.99826 27.557Z" fill="#F1F1F1"/>
<path fill-rule="evenodd" clip-rule="evenodd" d="M20.1328 26.4924L21.6414 26.4967C21.6398 26.6509 21.6636 26.7157 21.662 26.8699L21.6573 29.2369C21.6557 29.3046 21.6525 29.3795 21.6557 29.4458C21.6588 29.5394 21.6794 29.5279 21.6779 29.6316L22.6604 29.6345L22.6667 26.9967C22.6683 26.8079 22.6905 26.7042 22.692 26.5198C23.2261 26.5198 23.684 26.5011 24.2212 26.5011C24.2228 26.2518 24.2466 26.0732 24.2466 25.8167L20.1344 25.8081L20.1328 26.4924Z" fill="#F1F1F1"/>
<path fill-rule="evenodd" clip-rule="evenodd" d="M11.7964 26.3932V26.4753L13.3034 26.4782L13.3494 26.9147C13.3573 27.1409 13.3509 29.0296 13.324 29.1823C13.3113 29.2558 13.3193 29.3523 13.3193 29.4272C13.3161 29.6808 13.2052 29.6145 14.3239 29.6174L14.3319 26.5013C14.4475 26.5027 14.4555 26.4811 14.5822 26.4811L15.907 26.484L15.9086 25.7997L11.8202 25.791C11.8202 26.0158 11.7964 26.1641 11.7964 26.3932Z" fill="#F1F1F1"/>
<path fill-rule="evenodd" clip-rule="evenodd" d="M13.2681 31.0893C13.2681 31.4207 13.3124 31.6786 13.3124 31.9408H13.791C13.7926 31.8053 13.8148 31.7405 13.8148 31.5878C13.8148 31.3631 13.8385 31.3213 13.8385 31.2348L14.6388 31.2363C14.8321 31.2377 14.9288 31.2161 15.119 31.2176C15.119 31.1326 15.138 31.1167 15.138 31.072C15.138 31.0274 15.119 31.0101 15.119 30.9265C14.9748 30.9265 14.9288 30.9049 14.7767 30.9049L13.8164 30.9035C13.8449 30.6038 14.0065 30.5073 14.3662 30.5087C14.7085 30.5116 14.9763 30.49 15.3265 30.4915C15.5452 30.4915 15.6752 30.5116 15.897 30.5131L15.8939 31.9451L16.3502 31.9465L16.3772 30.5131L16.7195 30.516C16.8225 30.5116 16.8003 30.4958 16.9017 30.4929C17.1822 30.4857 17.0839 30.5505 17.0855 30.2033C16.9825 30.2019 17.0063 30.186 16.9033 30.1817L14.7783 30.1572C14.6451 30.1572 14.5897 30.1788 14.436 30.1774C13.7213 30.1731 13.2697 30.3935 13.2681 31.0893Z" fill="#F1F1F1"/>
<path fill-rule="evenodd" clip-rule="evenodd" d="M22.8192 30.5478L22.8145 31.9611C23.3548 31.9611 23.2487 32.0662 23.2502 31.4208C23.2502 31.2134 23.2518 31.0059 23.2518 30.7985C23.4309 30.918 23.6496 31.7637 23.6828 31.817C23.7859 31.9884 24.0964 31.9625 24.2993 31.964C24.3452 31.8876 24.3833 31.7925 24.4245 31.7018L24.8048 30.9267C24.8048 31.0996 24.8048 31.2724 24.8032 31.4453C24.8032 31.624 24.8254 31.7637 24.8254 31.964L25.2358 31.987L25.2643 30.2006L24.5782 30.1991L24.4498 30.4974C24.407 30.6112 24.3611 30.7221 24.3294 30.8258C24.2248 31.1802 24.0679 31.3834 24.0505 31.4439C23.9618 31.3848 23.8049 30.9324 23.7621 30.8345L23.4816 30.1963L22.843 30.1948C22.8414 30.3403 22.8192 30.398 22.8192 30.5478Z" fill="#F1F1F1"/>
<path fill-rule="evenodd" clip-rule="evenodd" d="M21.5135 31.9988L21.8558 32.0002C22.1093 32.0002 22.2821 31.9599 22.5182 31.9599L22.5214 30.9212C22.0222 30.9212 21.4026 30.7339 21.401 31.1056V31.1474C21.6387 31.2626 21.7591 31.2525 22.0174 31.2525L22.0158 31.6271C21.9271 31.6285 21.916 31.6473 21.7417 31.6473C21.3598 31.6458 20.9652 31.5479 20.9668 31.2093C20.9684 30.4256 21.4311 30.5423 22.2472 30.548C22.3756 30.548 22.3993 30.5293 22.4992 30.5264C22.4992 30.3953 22.5229 30.3536 22.5229 30.2153C22.3772 30.2124 22.0872 30.1519 21.6783 30.1519C21.1395 30.1504 20.6103 30.3262 20.4692 30.7958C20.2743 31.4441 20.6578 31.9974 21.5135 31.9988Z" fill="#F1F1F1"/>
<path fill-rule="evenodd" clip-rule="evenodd" d="M24.4907 28.7036C24.4891 29.0263 24.4669 29.2741 24.4653 29.5968L25.3337 29.6602L25.3401 26.8149L24.4954 26.8135L24.4907 28.7036Z" fill="#F1F1F1"/>
<path fill-rule="evenodd" clip-rule="evenodd" d="M18.2251 31.0159C18.2251 31.2449 18.2647 31.412 18.3693 31.5907L18.4818 31.7376C18.4977 31.7535 18.6007 31.8212 18.626 31.8342C18.9952 32.0229 20.0823 32.128 20.2218 31.487C20.2392 31.4063 20.2646 30.9136 20.2503 30.8415C20.2186 30.6831 20.2487 30.4929 20.2376 30.356C20.2313 30.2754 20.2154 30.2898 20.2154 30.1889H19.7591C19.7575 30.3042 19.7179 30.3949 19.7369 30.5404L19.7559 31.1023C19.7543 31.4927 19.5832 31.6425 19.206 31.6411C18.6403 31.6397 18.7972 30.7983 18.7987 30.2696C18.7987 30.1875 18.7259 30.2134 18.645 30.2019L18.3186 30.186C18.3091 30.297 18.2726 30.477 18.2552 30.5837L18.2251 31.0159Z" fill="#F1F1F1"/>
<path fill-rule="evenodd" clip-rule="evenodd" d="M24.5412 26.5225L25.3414 26.5239L25.343 25.818L24.5665 25.7964C24.4762 25.7964 24.4968 25.8627 24.4968 25.9405V26.3784C24.4905 26.4432 24.4334 26.5225 24.5412 26.5225Z" fill="#F1F1F1"/>
</svg>
